<?xml version="1.0" encoding="utf-8"?>
<svg version="1.1" xmlns="http://www.w3.org/2000/svg" xmlns:xlink="http://www.w3.org/1999/xlink" x="0px" y="0px"
	 viewBox="0 0 64 64" enable-background="new 0 0 64 64" xml:space="preserve">
	<path fill="#FFFFFF" d="M4.7338,18.2182c0.2142-0.7299,0.3584-1.4904,0.6602-2.1822c0.3915-0.8976,1.101-1.5537,1.9413-2.0643
		c6.8254-4.1473,13.6324-8.3254,20.4811-12.4339c2.8002-1.6798,5.7018-1.6334,8.4997,0.0538
		c6.8528,4.1325,13.6888,8.293,20.5146,12.47c1.5307,0.9367,2.4064,2.3733,2.4123,4.1755
		c0.0302,9.1937,0.0323,18.3877-0.0016,27.5814c-0.0069,1.8626-0.9645,3.2845-2.5452,4.2495
		c-5.0444,3.0793-10.0988,6.1421-15.149,9.2119c-1.7199,1.0454-3.4452,2.0819-5.1556,3.1427
		c-1.1504,0.7135-2.4072,1.088-3.7325,1.2756c-0.4158,0-0.8317,0-1.2475,0c-1.9086-0.1704-3.5198-1.0598-5.0808-2.0827
		c-0.6403-0.4196-1.3087-0.7965-1.9633-1.1944c-5.6187-3.4158-11.2336-6.838-16.8587-10.2432
		c-1.2442-0.7532-2.1224-1.7711-2.536-3.1717c-0.0935-0.3168-0.1601-0.6415-0.239-0.9626
		C4.7338,36.7684,4.7338,27.4933,4.7338,18.2182z M57.3299,32.0521c0-4.4768-0.0065-8.9535,0.004-13.4303
		c0.0032-1.3561-0.5776-2.3571-1.7224-3.0525c-0.7917-0.4809-1.5843-0.9602-2.3759-1.4414
		C47.284,10.5106,41.3354,6.8884,35.3798,3.2777c-2.1703-1.3158-4.4024-1.3925-6.5806-0.0789
		C22.042,7.2741,15.3138,11.3974,8.5617,15.4813c-1.2902,0.7804-1.8974,1.8728-1.8887,3.3625
		c0.0143,2.4461,0.0039,4.8924,0.0039,7.3387c0,6.3314,0.0058,12.6629-0.0043,18.9943c-0.0024,1.4867,0.5605,2.6182,1.8769,3.366
		c0.8747,0.4968,1.7223,1.0411,2.5821,1.564c5.8687,3.5686,11.7306,7.1484,17.6098,10.6997
		c2.1574,1.3032,4.3754,1.315,6.5366,0.0079c6.7795-4.1002,13.5431-8.2264,20.3152-12.3388c1.1639-0.7068,1.7465-1.712,1.742-3.0891
		C57.3209,40.9417,57.3299,36.4969,57.3299,32.0521z"/>
	<path fill="#121212" d="M57.3299,32.0521c0,4.4448-0.009,8.8896,0.0054,13.3344c0.0045,1.3771-0.5782,2.3823-1.742,3.0891
		c-6.7721,4.1124-13.5357,8.2386-20.3152,12.3388c-2.1612,1.3071-4.3791,1.2952-6.5366-0.0079
		c-5.8792-3.5512-11.7411-7.1311-17.6098-10.6997c-0.8598-0.5228-1.7075-1.0672-2.5821-1.564
		c-1.3165-0.7477-1.8793-1.8792-1.8769-3.366c0.0102-6.3314,0.0043-12.6628,0.0043-18.9943c0-2.4462,0.0104-4.8925-0.0039-7.3387
		c-0.0087-1.4897,0.5984-2.5822,1.8887-3.3625c6.7521-4.0838,13.4802-8.2072,20.2375-12.2824
		c2.1782-1.3136,4.4103-1.2369,6.5806,0.0789c5.9556,3.6106,11.9042,7.2328,17.8558,10.8502
		c0.7916,0.4811,1.5842,0.9605,2.3759,1.4414c1.1448,0.6954,1.7256,1.6964,1.7224,3.0525
		C57.3234,23.0986,57.3299,27.5753,57.3299,32.0521z M51.768,36.8479c0-0.9753,0-1.9507,0-2.926
		c-0.0001-1.2791,0.0076-2.5584-0.0038-3.8374c-0.0052-0.5892-0.4645-0.8478-0.9888-0.5776
		c-0.1133,0.0584-0.2194,0.1307-0.3287,0.1968c-5.7106,3.4597-11.4247,6.9138-17.128,10.3855
		c-0.8407,0.5117-1.6148,0.5283-2.4688,0.0327c-4.241-2.461-8.4906-4.9073-12.7493-7.3376
		c-0.5669-0.3235-0.8474-0.7817-0.8757-1.3826c-0.042-0.8934-0.0316-1.7902-0.0162-2.685c0.0075-0.4337,0.3449-0.608,0.7327-0.4102
		c0.1561,0.0796,0.3024,0.1787,0.4527,0.2698c4.14,2.5083,8.2826,5.0122,12.4175,7.5287c0.836,0.5087,1.6358,0.5255,2.4758,0.0158
		c5.9132-3.5886,11.8301-7.1713,17.7499-10.7491c0.4994-0.3019,0.7511-0.7054,0.7453-1.2925
		c-0.0112-1.1511-0.0085-2.3025-0.0014-3.4536c0.0035-0.5658-0.239-0.9635-0.7224-1.2568
		c-5.8995-3.5803-11.7946-7.1679-17.6924-10.7511c-0.8873-0.5391-1.7887-0.5398-2.6746-0.0021
		c-5.8996,3.5802-11.7955,7.1666-17.6964,10.7447c-0.5013,0.304-0.7323,0.7177-0.7315,1.3012
		c0.0061,4.3491,0.0057,8.6982,0.0004,13.0473c-0.0007,0.5832,0.2346,0.9941,0.7368,1.2981
		c5.9446,3.5984,11.8837,7.2058,17.828,10.8048c0.2421,0.1466,0.5117,0.2666,0.7843,0.3405
		c0.6489,0.1757,1.2152-0.0579,1.7662-0.3927c4.1635-2.5307,8.33-5.0566,12.5036-7.5706c0.1957-0.1179,0.5494-0.2246,0.684-0.1298
		c0.1701,0.1197,0.2532,0.449,0.2637,0.6927c0.0268,0.6216-0.0262,1.2462-0.0121,1.8688c0.0144,0.6382-0.2323,1.0776-0.7903,1.4136
		c-4.2423,2.5546-8.4804,5.1164-12.7036,7.7026c-0.8933,0.5471-1.7006,0.56-2.5933,0.0161
		c-5.7704-3.5159-11.5499-7.0167-17.3363-10.5063c-0.2288-0.138-0.5809-0.2046-0.8331-0.1397
		c-0.3757,0.0967-0.3395,0.4874-0.3354,0.811c0.0141,1.1186,0.0493,2.2375,0.0318,3.3556
		c-0.0107,0.6839,0.2613,1.1247,0.8465,1.4788c5.8907,3.564,11.7728,7.1424,17.6513,10.7267
		c0.8359,0.5097,1.6365,0.5334,2.4753,0.0228c5.922-3.6044,11.8465-7.2048,17.7742-10.7999
		c0.5304-0.3217,0.7745-0.7494,0.7692-1.3781C51.7566,41.1651,51.768,39.0065,51.768,36.8479z"/>
	<path fill="#FFFFFF" d="M51.768,36.8479c0,2.1586-0.0114,4.3172,0.0071,6.4756c0.0054,0.6287-0.2388,1.0565-0.7692,1.3781
		c-5.9277,3.5951-11.8522,7.1954-17.7742,10.7999c-0.8388,0.5105-1.6394,0.4868-2.4753-0.0228
		c-5.8785-3.5843-11.7605-7.1627-17.6513-10.7267c-0.5852-0.3541-0.8572-0.7949-0.8465-1.4788
		c0.0175-1.1181-0.0176-2.237-0.0318-3.3556c-0.0041-0.3236-0.0403-0.7143,0.3354-0.811c0.2522-0.0649,0.6043,0.0017,0.8331,0.1397
		c5.7864,3.4895,11.5659,6.9904,17.3363,10.5063c0.8927,0.5439,1.7,0.531,2.5933-0.0161c4.2231-2.5862,8.4612-5.148,12.7036-7.7026
		c0.558-0.336,0.8047-0.7754,0.7903-1.4136c-0.0141-0.6226,0.0389-1.2472,0.0121-1.8688c-0.0105-0.2437-0.0936-0.573-0.2637-0.6927
		c-0.1346-0.0947-0.4883,0.0119-0.684,0.1298c-4.1736,2.514-8.3401,5.0399-12.5036,7.5706
		c-0.5509,0.3349-1.1173,0.5684-1.7662,0.3927c-0.2726-0.0738-0.5422-0.1939-0.7843-0.3405
		c-5.9443-3.5989-11.8834-7.2064-17.828-10.8048c-0.5022-0.304-0.7375-0.7149-0.7368-1.2981
		c0.0053-4.3491,0.0056-8.6982-0.0004-13.0473c-0.0008-0.5835,0.2302-0.9972,0.7315-1.3012
		c5.9009-3.578,11.7968-7.1644,17.6964-10.7447c0.886-0.5377,1.7873-0.537,2.6746,0.0021
		c5.8978,3.5832,11.7929,7.1708,17.6924,10.7511c0.4834,0.2934,0.7259,0.6911,0.7224,1.2568
		c-0.0071,1.1512-0.0099,2.3025,0.0014,3.4536c0.0057,0.5871-0.2459,0.9907-0.7453,1.2925
		c-5.9198,3.5778-11.8366,7.1605-17.7499,10.7491c-0.84,0.5097-1.6398,0.493-2.4758-0.0158
		c-4.135-2.5165-8.2776-5.0205-12.4175-7.5287c-0.1503-0.091-0.2965-0.1902-0.4527-0.2698
		c-0.3879-0.1978-0.7252-0.0235-0.7327,0.4102c-0.0155,0.8949-0.0258,1.7916,0.0162,2.685
		c0.0282,0.6009,0.3087,1.0591,0.8757,1.3826c4.2587,2.4303,8.5083,4.8766,12.7493,7.3376c0.854,0.4955,1.6281,0.479,2.4688-0.0327
		c5.7033-3.4718,11.4174-6.9258,17.128-10.3855c0.1092-0.0662,0.2154-0.1384,0.3287-0.1968
		c0.5243-0.2703,0.9836-0.0117,0.9888,0.5776c0.0114,1.279,0.0037,2.5583,0.0038,3.8374
		C51.768,34.8972,51.768,35.8726,51.768,36.8479z"/>
</svg>
